<svg xmlns="http://www.w3.org/2000/svg" xmlns:xlink="http://www.w3.org/1999/xlink" fill="currentColor" viewBox="0 0 24 24">
  <defs>
    <linearGradient id="a">
      <stop offset="0" stop-color="#004a85"/>
      <stop offset="1" stop-color="#00be69"/>
    </linearGradient>
    <linearGradient xlink:href="#a" id="b" x1="16.822" x2="7.178" y1="2.113" y2="21.887" gradientUnits="userSpaceOnUse" spreadMethod="pad"/>
  </defs>
  <path fill="url(#b)" d="M9 2a8.002 8.002 0 0 1 7.934 6.965l2.25 3.539c.148.233.118.58-.225.728L17 14.07V17a2 2 0 0 1-2 2h-1.999L13 22H4v-3.694c0-1.18-.436-2.297-1.244-3.305A8 8 0 0 1 9 2Zm12.154 16.102-1.665-1.11A8.959 8.959 0 0 0 21 12a8.958 8.958 0 0 0-1.51-4.993l1.664-1.11A10.948 10.948 0 0 1 23 12c0 2.258-.68 4.356-1.846 6.102Z"/>
</svg>